<svg xmlns="http://www.w3.org/2000/svg" viewBox="0 0 600 160" role="img" aria-label="HelpPC logo">

<g transform="translate(24,27) scale(1.06)">
  <polygon points="6.00,13.27 6.00,86.48 24.88,86.73 25.13,58.93 42.73,58.67 60.59,40.31 25.39,40.31 25.13,13.27" fill="#1769FF"/>
  <polygon points="84.05,13.27 45.54,13.27 45.54,36.74 60.08,36.74 60.33,29.85 76.66,29.85 76.91,30.61 44.77,61.99 44.77,86.48 61.10,86.48 61.10,59.18 72.32,58.67 93.74,38.01 94.00,22.71" fill="#FFFFFF"/>
</g>
<path d="M9.188,-72.906 L27.984,-72.906 L27.984,-45.125 L55.719,-45.125 L55.719,-72.906 L74.516,-72.906 L74.516,-0.000 L55.719,-0.000 L55.719,-30.906 L27.984,-30.906 L27.984,-0.000 L9.188,-0.000 L9.188,-72.906 Z M146.676,-27.484 L146.676,-22.516 L105.816,-22.516 Q106.441,-16.359 110.254,-13.281 Q114.066,-10.203 120.895,-10.203 Q126.410,-10.203 132.191,-11.844 Q137.988,-13.484 144.098,-16.797 L144.098,-3.328 Q137.895,-0.984 131.691,0.219 Q125.488,1.422 119.285,1.422 Q104.441,1.422 96.207,-6.125 Q87.988,-13.672 87.988,-27.297 Q87.988,-40.672 96.066,-48.328 Q104.145,-56.000 118.316,-56.000 Q131.207,-56.000 138.941,-48.234 Q146.676,-40.484 146.676,-27.484 Z M128.707,-33.297 Q128.707,-38.281 125.801,-41.328 Q122.895,-44.391 118.207,-44.391 Q113.129,-44.391 109.957,-41.531 Q106.785,-38.672 106.004,-33.297 L128.707,-33.297 Z M159.920,-75.984 L177.389,-75.984 L177.389,-0.000 L159.920,-0.000 L159.920,-75.984 Z M211.666,-7.906 L211.666,20.797 L194.197,20.797 L194.197,-54.688 L211.666,-54.688 L211.666,-46.688 Q215.291,-51.469 219.682,-53.734 Q224.072,-56.000 229.791,-56.000 Q239.900,-56.000 246.385,-47.969 Q252.885,-39.938 252.885,-27.297 Q252.885,-14.656 246.385,-6.609 Q239.900,1.422 229.791,1.422 Q224.072,1.422 219.682,-0.844 Q215.291,-3.125 211.666,-7.906 Z M223.291,-43.312 Q217.682,-43.312 214.666,-39.188 Q211.666,-35.062 211.666,-27.297 Q211.666,-19.531 214.666,-15.406 Q217.682,-11.281 223.291,-11.281 Q228.900,-11.281 231.854,-15.375 Q234.822,-19.484 234.822,-27.297 Q234.822,-35.109 231.854,-39.203 Q228.900,-43.312 223.291,-43.312 Z M266.561,-72.906 L297.748,-72.906 Q311.670,-72.906 319.107,-66.719 Q326.561,-60.547 326.561,-49.125 Q326.561,-37.641 319.107,-31.469 Q311.670,-25.297 297.748,-25.297 L285.357,-25.297 L285.357,-0.000 L266.561,-0.000 L266.561,-72.906 Z M285.357,-59.281 L285.357,-38.922 L295.748,-38.922 Q301.217,-38.922 304.201,-41.578 Q307.186,-44.234 307.186,-49.125 Q307.186,-54.000 304.201,-56.641 Q301.217,-59.281 295.748,-59.281 L285.357,-59.281 Z M397.664,-4.000 Q392.477,-1.312 386.867,0.047 Q381.258,1.422 375.148,1.422 Q356.930,1.422 346.289,-8.766 Q335.648,-18.953 335.648,-36.375 Q335.648,-53.859 346.289,-64.031 Q356.930,-74.219 375.148,-74.219 Q381.258,-74.219 386.867,-72.844 Q392.477,-71.484 397.664,-68.797 L397.664,-53.719 Q392.430,-57.281 387.352,-58.938 Q382.273,-60.594 376.664,-60.594 Q366.602,-60.594 360.836,-54.141 Q355.086,-47.703 355.086,-36.375 Q355.086,-25.094 360.836,-18.641 Q366.602,-12.203 376.664,-12.203 Q382.273,-12.203 387.352,-13.859 Q392.430,-15.531 397.664,-19.094 L397.664,-4.000 Z" transform="translate(158.355,100.000) scale(0.72328)" fill="#FFFFFF"/>
</svg>